<svg aria-hidden="true" style="position: absolute; width: 0; height: 0; overflow: hidden;" version="1.1" xmlns="http://www.w3.org/2000/svg" xmlns:xlink="http://www.w3.org/1999/xlink">
<defs>
<symbol id="icon-arrow" viewBox="0 0 34 32">
<path d="M21.931 15.71c0.163 0.163 0.264 0.389 0.264 0.638s-0.101 0.474-0.264 0.638v0l-9.207 9.209c-0.163 0.164-0.389 0.265-0.639 0.265s-0.475-0.101-0.639-0.265v0l-0.425-0.425c-0.164-0.164-0.266-0.39-0.266-0.64s0.102-0.476 0.266-0.64l8.142-8.139-8.142-8.144c-0.164-0.163-0.265-0.389-0.265-0.639s0.101-0.475 0.265-0.639v0l0.425-0.425c0.164-0.164 0.39-0.266 0.64-0.266s0.476 0.102 0.64 0.266l9.205 9.207z"></path>
</symbol>
</defs>
</svg>
